<?xml version="1.0" standalone="no"?>
<!DOCTYPE svg PUBLIC "-//W3C//DTD SVG 20010904//EN"
 "http://www.w3.org/TR/2001/REC-SVG-20010904/DTD/svg10.dtd">
<svg version="1.0" xmlns="http://www.w3.org/2000/svg"
 width="868.000000pt" height="868.000000pt" viewBox="0 0 868.000000 868.000000"
 preserveAspectRatio="xMidYMid meet">
<metadata>
Created by potrace 1.14, written by Peter Selinger 2001-2017
</metadata>
<g transform="translate(0.000000,868.000000) scale(0.100000,-0.100000)"
fill="#000000" stroke="none">
<path d="M207 5438 c-49 -13 -103 -67 -116 -115 -22 -78 -8 -164 33 -202 l24
-23 -21 -25 c-60 -68 -61 -192 -3 -260 l24 -28 -24 -28 c-56 -67 -58 -197 -2
-256 17 -19 19 -27 10 -40 -38 -54 -46 -79 -47 -147 0 -61 4 -76 28 -113 l29
-43 -21 -22 c-55 -59 -54 -197 2 -256 l23 -25 -30 -43 c-27 -38 -31 -52 -31
-110 0 -78 19 -118 78 -166 38 -30 42 -31 138 -31 54 0 99 -1 99 -1 0 -1 -7
-18 -15 -37 -45 -108 13 -235 122 -267 26 -8 173 -10 473 -8 484 3 460 0 515
73 21 27 29 50 32 99 7 82 -20 145 -80 184 l-41 27 -453 0 c-399 0 -452 2
-447 15 32 75 27 168 -11 224 l-24 36 24 35 c45 67 42 188 -5 248 l-20 26 24
36 c46 67 43 199 -6 251 l-20 22 26 38 c47 73 44 190 -8 251 l-24 28 24 28
c56 66 57 188 0 253 l-22 27 22 24 c22 24 44 92 44 136 0 66 -46 144 -104 174
-36 19 -168 26 -219 11z m183 -53 l25 -14 -25 -1 c-14 -1 -48 -1 -76 0 -90 2
-152 -37 -155 -98 0 -10 -3 -12 -6 -4 -2 6 -9 9 -15 6 -15 -9 -1 44 18 74 9
13 30 30 47 37 42 19 155 18 187 0z m-150 -305 c0 -5 -14 -22 -31 -37 -18 -16
-40 -46 -51 -68 -10 -22 -16 -32 -14 -23 3 9 0 18 -6 20 -19 7 21 76 55 97 37
22 47 25 47 11z m0 -309 c0 -5 -12 -19 -26 -32 -14 -13 -37 -41 -50 -62 -30
-46 -41 -43 -24 7 15 48 100 121 100 87z m0 -314 c0 -14 -44 -57 -58 -57 -4 0
-7 -3 -7 -7 -1 -19 -39 -77 -42 -66 -9 26 20 84 55 113 40 33 52 37 52 17z
m-7 -314 c-4 -10 -22 -32 -40 -49 -18 -17 -33 -39 -33 -48 0 -9 -7 -16 -15
-16 -20 0 -19 13 5 60 25 48 99 96 83 53z m7 -303 c0 -5 -18 -27 -40 -49 -22
-22 -40 -46 -40 -55 0 -8 -4 -18 -10 -21 -6 -4 -10 7 -10 26 0 23 10 41 39 70
38 38 61 49 61 29z m1155 -324 c19 -8 25 -15 17 -20 -7 -4 -12 -4 -12 1 0 4
-200 6 -444 3 l-444 -5 -27 -25 c-15 -14 -34 -40 -41 -57 -18 -42 -23 -42 -20
2 4 45 30 83 69 100 45 20 857 21 902 1z"/>
<path d="M2351 5440 c-39 -9 -77 -35 -105 -74 -18 -23 -21 -42 -21 -115 0 -79
3 -91 26 -122 l26 -34 -26 -34 c-23 -31 -26 -43 -26 -116 0 -72 3 -86 28 -124
26 -39 27 -43 11 -58 -59 -60 -58 -208 3 -275 15 -17 15 -20 -5 -41 -30 -32
-42 -70 -42 -133 0 -59 17 -111 43 -133 15 -12 14 -16 -11 -49 -25 -32 -27
-43 -27 -122 0 -80 2 -89 29 -124 l28 -37 -20 -22 c-72 -77 -50 -235 41 -295
37 -25 49 -27 137 -27 96 0 97 0 84 -21 -8 -11 -17 -47 -20 -80 -7 -75 21
-135 84 -179 l44 -30 369 -3 c423 -3 428 -3 484 78 27 39 30 51 30 120 0 57
-5 83 -18 104 -18 27 -18 28 0 23 114 -32 245 2 283 73 35 65 30 183 -9 239
-18 26 -18 27 5 60 43 64 44 179 0 243 l-22 33 23 36 c44 68 40 196 -7 247
l-20 22 27 42 c25 37 28 51 28 119 -1 71 -3 81 -31 116 l-30 38 23 24 c57 60
56 196 0 258 -19 22 -20 24 -3 42 40 45 56 139 36 213 -23 82 -125 135 -245
126 -103 -9 -165 -55 -186 -140 -15 -65 -4 -128 31 -176 l29 -40 -24 -22 c-23
-21 -45 -87 -45 -132 0 -41 20 -97 45 -126 l24 -29 -24 -23 c-30 -28 -49 -107
-41 -165 4 -24 20 -61 36 -83 l29 -40 -24 -22 c-23 -21 -45 -87 -45 -132 0
-41 20 -97 45 -126 l24 -29 -23 -22 c-55 -52 -58 -178 -6 -250 16 -22 26 -41
22 -43 -22 -9 -52 -72 -58 -119 -4 -41 -1 -66 13 -104 l19 -50 -382 0 -382 0
14 27 c16 30 19 144 5 180 -5 13 -19 34 -31 47 -14 14 -19 26 -13 30 32 19 53
78 53 144 0 70 -8 96 -42 134 -20 22 -20 22 1 44 31 34 44 83 39 158 -2 48 -9
75 -25 97 l-22 31 25 49 c22 42 25 60 22 125 -2 63 -7 81 -29 110 l-26 34 26
34 c23 31 26 43 26 121 0 79 -2 90 -27 122 -25 33 -26 37 -11 49 47 40 59 177
20 241 -28 47 -62 73 -112 87 -45 12 -123 13 -174 1z m167 -51 c50 -17 29 -26
-51 -21 -57 3 -82 0 -108 -13 -40 -20 -68 -53 -69 -78 0 -10 -4 -16 -9 -13 -5
4 -12 0 -14 -6 -3 -7 -3 3 0 22 13 80 66 120 159 120 34 0 75 -5 92 -11z
m1147 -3 c19 -8 35 -17 35 -19 0 -2 -34 -2 -75 1 -101 6 -151 -13 -183 -69
-29 -50 -38 -45 -21 11 12 38 40 68 79 83 30 11 132 7 165 -7z m-145 -306 c0
-13 -12 -28 -30 -38 -17 -9 -33 -27 -36 -39 -4 -13 -10 -20 -15 -17 -5 3 -6
-2 -3 -10 4 -11 0 -16 -10 -16 -35 0 -1 74 52 112 20 14 38 27 40 27 1 1 2 -8
2 -19z m-1150 0 c0 -5 18 -10 40 -10 111 0 178 -82 130 -158 -54 -87 -211 -76
-250 18 -10 24 -15 28 -22 18 -7 -9 -8 -7 -4 7 3 11 8 32 12 48 3 15 23 41 42
57 38 31 52 37 52 20z m-39 -366 c-23 -26 -41 -51 -41 -56 0 -5 -7 -16 -15
-24 -13 -13 -14 -11 -8 18 9 52 31 87 66 108 46 28 45 7 -2 -46z m1152 12
c-21 -23 -43 -51 -49 -62 -20 -33 -26 -9 -8 34 15 40 69 86 87 75 4 -2 -9 -24
-30 -47z m-1113 -269 c0 -8 -17 -32 -37 -53 -21 -22 -43 -49 -50 -59 -11 -19
-12 -19 -12 5 -1 28 20 63 59 97 29 26 40 28 40 10z m1150 -1 c0 -8 -13 -24
-29 -35 -16 -11 -36 -36 -45 -56 -19 -39 -41 -48 -31 -12 16 55 29 78 59 97
37 24 46 25 46 6z m-9 -325 c-6 -11 -20 -23 -31 -26 -11 -4 -18 -11 -15 -16 4
-5 0 -9 -7 -9 -8 0 -14 -9 -15 -20 -1 -11 -9 -28 -19 -37 -16 -17 -17 -15 -10
21 9 50 20 65 64 98 38 27 51 23 33 -11z m-1141 15 c0 -8 -13 -25 -29 -38 -16
-13 -36 -38 -46 -56 -20 -41 -30 -35 -21 12 5 24 19 45 44 66 41 33 52 37 52
16z m1140 -316 c-5 -10 -21 -27 -35 -38 -14 -11 -25 -27 -25 -37 0 -9 -4 -13
-10 -10 -5 3 -7 0 -4 -8 3 -8 -1 -17 -9 -20 -12 -4 -13 1 -7 29 9 38 22 59 60
91 29 24 45 21 30 -7z m-1140 5 c0 -8 -13 -27 -29 -41 -17 -14 -38 -43 -47
-63 -14 -27 -19 -32 -22 -18 -7 33 6 62 44 100 40 40 54 46 54 22z m1020 -315
c53 -16 -13 -20 -375 -22 -352 -3 -371 -4 -397 -23 -15 -11 -28 -28 -28 -38 0
-10 -4 -15 -10 -12 -6 3 -10 -4 -11 -17 0 -22 -1 -22 -8 -3 -14 35 23 95 69
114 29 11 722 13 760 1z"/>
<path d="M4765 5428 c-51 -18 -82 -46 -105 -94 -31 -63 -25 -167 13 -215 l25
-33 -26 -34 c-24 -31 -27 -44 -27 -112 0 -67 4 -82 28 -118 l27 -42 -27 -41
c-47 -72 -42 -199 11 -249 l25 -23 -24 -19 c-33 -26 -48 -79 -43 -153 3 -49
10 -70 32 -99 l27 -36 -25 -30 c-47 -57 -48 -184 -1 -246 l27 -35 -20 -22
c-30 -32 -42 -71 -42 -133 0 -59 17 -111 43 -132 15 -13 14 -17 -10 -53 -31
-47 -41 -128 -23 -184 16 -47 66 -104 107 -121 42 -18 995 -20 1058 -3 52 15
100 65 115 119 14 50 6 134 -15 166 -14 21 -13 21 55 16 93 -6 154 4 189 33
78 66 87 201 19 296 -8 12 -6 22 10 45 49 68 47 181 -4 251 -15 19 -20 34 -14
38 17 10 43 67 51 110 10 53 -7 129 -37 164 -21 26 -22 30 -8 42 60 50 65 184
8 260 -22 30 -23 35 -9 45 43 32 63 171 32 230 -20 38 -65 80 -102 94 -16 7
-67 12 -112 12 l-81 0 15 37 c11 25 14 55 10 99 -5 71 -36 121 -98 157 -33 19
-54 20 -539 22 -342 1 -515 -2 -535 -9z m1044 -55 c21 -17 -1 -18 -498 -15
l-520 2 -36 -31 c-19 -17 -38 -42 -41 -55 -8 -30 -24 -31 -24 -1 0 34 37 87
73 102 26 12 125 14 528 15 459 0 498 -1 518 -17z m-1014 -293 c3 -5 -15 -31
-40 -56 -26 -25 -47 -54 -48 -65 -1 -10 -5 -19 -10 -19 -5 0 -7 17 -4 38 5 27
17 47 49 74 49 43 45 41 53 28z m1299 -20 c12 -12 9 -12 -84 -14 -85 -1 -125
-20 -150 -71 -19 -37 -20 -38 -20 -13 0 80 63 122 174 114 38 -3 74 -10 80
-16z m-301 -57 c-20 -66 -11 -144 22 -195 l27 -40 -20 -22 c-55 -58 -53 -188
3 -254 l24 -29 -24 -23 c-51 -48 -56 -176 -9 -245 13 -20 24 -38 24 -40 0 -2
-11 -20 -24 -40 -46 -67 -46 -162 -1 -229 l24 -36 -24 -36 c-38 -56 -43 -149
-11 -224 5 -13 -39 -15 -369 -12 l-376 2 8 23 c4 12 8 56 8 97 0 63 -4 80 -24
109 -20 27 -22 37 -12 50 57 79 57 203 0 282 -10 13 -7 22 11 47 17 23 25 50
28 92 6 79 -4 123 -33 158 -24 29 -24 30 -5 47 54 49 56 192 4 261 -21 29 -22
33 -7 45 39 33 56 140 34 216 l-10 33 372 3 c205 1 373 3 374 5 0 1 -6 -19
-14 -45z m-1042 -296 c-23 -21 -41 -46 -41 -53 0 -8 -4 -14 -10 -14 -5 0 -10
7 -10 16 0 26 20 58 58 91 54 47 56 12 3 -40z m1189 56 c0 -5 -18 -26 -40 -48
-21 -22 -39 -46 -40 -52 0 -7 -6 -13 -14 -13 -16 0 -11 33 10 64 21 30 84 67
84 49z m-1184 -360 c-20 -20 -36 -41 -36 -48 0 -7 -7 -15 -15 -19 -11 -4 -15
2 -15 21 0 34 93 126 98 98 2 -10 -11 -32 -32 -52z m1184 47 c0 -5 -3 -10 -7
-10 -17 0 -60 -47 -72 -77 -16 -40 -34 -44 -25 -5 9 34 32 66 64 86 29 18 40
20 40 6z m-1178 -346 c-16 -13 -35 -37 -42 -54 -13 -32 -30 -40 -30 -15 0 27
28 71 62 100 29 25 33 26 37 10 2 -11 -9 -27 -27 -41z m1169 28 c-5 -10 -17
-24 -26 -32 -8 -7 -25 -30 -37 -51 -25 -45 -41 -51 -32 -11 10 42 24 65 52 89
34 29 57 31 43 5z m-1145 -304 c-3 -13 -19 -31 -36 -40 -21 -12 -28 -22 -23
-34 4 -12 3 -15 -5 -10 -8 5 -12 0 -12 -13 0 -11 -4 -23 -10 -26 -14 -9 -13
41 1 68 7 12 23 31 37 42 14 11 30 25 36 31 15 16 20 9 12 -18z m1110 -43
c-20 -17 -33 -35 -29 -38 3 -4 1 -7 -5 -7 -7 0 -12 -10 -13 -22 -1 -22 -1 -22
-8 2 -10 32 9 71 51 104 28 22 34 23 36 9 2 -9 -12 -30 -32 -48z m-1106 -251
c0 -8 -13 -29 -30 -46 -16 -16 -30 -34 -30 -39 0 -6 -4 -7 -10 -4 -6 4 -10 -5
-10 -19 0 -14 -4 -26 -10 -26 -13 0 -13 36 1 63 9 18 76 85 87 87 1 0 2 -7 2
-16z m1000 -9 c22 -13 23 -14 5 -15 -99 -4 -811 2 -818 7 -28 17 58 22 408 22
312 0 385 -2 405 -14z"/>
<path d="M7380 5418 c-35 -18 -51 -35 -73 -78 -25 -47 -28 -63 -24 -112 3 -31
12 -70 20 -86 l14 -30 -36 10 c-20 6 -64 11 -98 11 -50 1 -69 -4 -101 -25 -94
-63 -120 -199 -57 -292 l24 -36 -24 -36 c-45 -67 -45 -167 1 -238 25 -38 26
-38 6 -60 -51 -55 -54 -177 -7 -248 26 -40 26 -40 7 -62 -55 -61 -54 -203 3
-265 15 -17 14 -21 -9 -55 -45 -66 -46 -174 -3 -237 38 -55 88 -74 198 -74
l95 0 -19 -33 c-15 -26 -18 -46 -15 -96 4 -73 29 -118 86 -157 l36 -24 360 -3
c377 -3 410 0 461 40 57 45 83 165 52 241 l-14 32 101 0 c83 0 107 4 136 20
88 51 110 225 38 303 -20 20 -20 23 -5 35 60 45 62 227 3 276 -16 13 -15 15 2
35 28 30 42 81 42 146 0 45 -6 65 -29 102 -29 46 -29 47 -10 64 48 43 51 198
5 258 -23 31 -24 35 -9 47 26 22 43 74 43 133 0 70 -12 102 -57 148 -43 44
-115 64 -201 55 -46 -5 -53 -4 -47 10 46 122 9 239 -90 284 -36 17 -72 19
-400 19 -355 0 -362 0 -405 -22z m774 -34 c50 -19 -17 -24 -350 -24 -417 0
-409 2 -449 -85 -10 -23 -15 -26 -20 -14 -8 22 20 84 51 108 26 20 36 21 390
21 199 0 369 -3 378 -6z m-906 -305 c28 -5 58 -16 68 -23 16 -12 13 -13 -22
-9 -21 2 -67 4 -101 5 -64 1 -64 1 -123 -69 -5 -7 -7 -20 -3 -29 4 -11 3 -15
-5 -11 -6 4 -13 -1 -15 -10 -3 -10 -5 -4 -5 12 -2 68 67 145 129 145 15 0 50
-5 77 -11z m1198 -14 c16 -8 25 -15 19 -15 -180 -3 -194 -5 -219 -33 -14 -16
-29 -39 -32 -52 -10 -42 -33 -31 -24 10 9 42 24 62 65 87 38 23 150 25 191 3z
m-289 -19 c2 -2 -1 -16 -8 -32 -27 -71 -4 -198 42 -227 16 -10 15 -12 -6 -29
-30 -24 -47 -76 -46 -142 0 -61 11 -92 41 -124 l21 -23 -25 -30 c-14 -17 -26
-34 -26 -37 -1 -4 -5 -26 -9 -50 -11 -53 2 -125 30 -163 l20 -29 -23 -32 c-17
-24 -24 -50 -26 -100 -5 -83 1 -108 35 -148 16 -20 22 -34 16 -38 -6 -4 -20
-23 -32 -42 -25 -41 -29 -142 -8 -193 l14 -32 -382 0 -382 0 14 32 c23 55 17
150 -13 200 l-25 43 23 33 c20 28 23 44 23 122 0 78 -3 94 -23 121 l-23 30 27
47 c23 42 26 56 23 125 -3 61 -9 84 -27 110 l-23 32 23 32 c18 25 24 50 27
106 3 77 -8 119 -40 148 -19 17 -19 18 7 45 24 25 28 39 32 106 3 55 0 89 -10
113 l-15 35 376 -3 c206 -2 377 -4 378 -6z m-1014 -294 c-2 -10 -17 -26 -34
-37 -16 -11 -38 -38 -49 -60 l-21 -40 6 45 c4 37 13 52 47 82 43 38 60 41 51
10z m1143 -5 c-3 -13 -17 -29 -30 -37 -14 -7 -30 -25 -36 -41 -13 -29 -47 -52
-36 -23 3 8 6 23 6 32 0 16 89 106 98 98 2 -3 2 -16 -2 -29z m-1143 -298 c-3
-11 -17 -27 -30 -36 -13 -9 -33 -33 -44 -55 -25 -48 -33 -48 -25 0 5 26 19 48
49 74 48 43 57 46 50 17z m1147 2 c0 -4 -17 -26 -37 -48 -21 -23 -46 -52 -57
-65 -14 -17 -17 -18 -12 -5 3 10 6 25 6 33 0 19 80 105 91 98 5 -3 9 -9 9 -13z
m-1179 -347 c-16 -14 -36 -41 -43 -59 -16 -46 -32 -45 -23 2 8 42 30 75 65 95
38 21 39 -6 1 -38z m1179 39 c0 -14 -15 -30 -37 -42 -12 -6 -27 -27 -34 -46
-17 -45 -33 -45 -26 0 6 37 15 49 57 78 26 18 40 22 40 10z m-1147 -312 c-2
-10 -18 -28 -34 -40 -16 -12 -29 -27 -29 -34 0 -7 -9 -25 -21 -42 l-20 -30 4
36 c6 47 32 91 65 111 36 22 41 21 35 -1z m1121 -26 c-17 -13 -37 -39 -45 -57
-7 -18 -19 -39 -26 -46 -10 -11 -12 -7 -6 20 11 58 22 78 53 96 16 9 30 21 30
27 0 5 6 3 12 -3 10 -10 6 -18 -18 -37z m-94 -290 c22 -12 -23 -14 -355 -15
l-380 0 -38 -26 c-25 -17 -37 -31 -33 -40 3 -9 1 -12 -4 -9 -6 3 -10 -3 -10
-14 0 -12 -4 -21 -10 -21 -5 0 -10 9 -10 20 0 34 29 80 63 100 30 19 52 20
392 20 290 -1 365 -3 385 -15z"/>
</g>
</svg>
